<svg version="1.1" xmlns="http://www.w3.org/2000/svg" xmlns:xlink="http://www.w3.org/1999/xlink" viewBox="0 0 226 226"><g fill="none" fill-rule="nonzero" stroke="none" stroke-width="1" stroke-linecap="butt" stroke-linejoin="miter" stroke-miterlimit="10" stroke-dasharray="" stroke-dashoffset="0" font-family="none" font-weight="none" font-size="none" text-anchor="none" style="mix-blend-mode: normal"><path d="M0,226v-226h226v226z" fill="none"></path><g><path d="M183.625,226h-141.25c-23.40512,0 -42.375,-18.96988 -42.375,-42.375v-141.25c0,-23.40512 18.96987,-42.375 42.375,-42.375h141.25c23.40513,0 42.375,18.96987 42.375,42.375v141.25c0,23.40513 -18.96988,42.375 -42.375,42.375z" fill="#f5e6fe"></path><path d="M164.78931,169.5h-103.57862c-2.28825,0 -4.2375,-1.6385 -4.64006,-3.89144c-0.3955,-2.25294 0.87575,-4.4635 3.02275,-5.24037c35.369,-12.88906 71.303,-12.88906 106.79913,0c2.147,0.77687 3.42531,2.9945 3.02981,5.24038c-0.38844,2.25294 -2.34475,3.89144 -4.633,3.89144z" fill="#be63f9"></path><path d="M102.40625,117.71069c-1.94925,0 -3.53125,-1.582 -3.53125,-3.53125v-21.1875c0,-1.94925 1.582,-3.53125 3.53125,-3.53125c1.94925,0 3.53125,1.582 3.53125,3.53125v21.1875c0,1.94925 -1.582,3.53125 -3.53125,3.53125z" fill="#d9a4fc"></path><path d="M60.03125,101.22681c-1.94925,0 -3.53125,-1.582 -3.53125,-3.53125v-28.25c0,-1.94925 1.582,-3.53125 3.53125,-3.53125c1.94925,0 3.53125,1.582 3.53125,3.53125v28.25c0,1.94925 -1.582,3.53125 -3.53125,3.53125z" fill="#d9a4fc"></path><path d="M68.27319,65.91431c-1.94925,0 -3.53125,-1.582 -3.53125,-3.53125v-2.35181c0,-1.94925 1.582,-3.53125 3.53125,-3.53125c1.94925,0 3.53125,1.582 3.53125,3.53125v2.35181c0,1.94925 -1.582,3.53125 -3.53125,3.53125z" fill="#d9a4fc"></path><path d="M165.96875,110.64819c-1.94925,0 -3.53125,-1.582 -3.53125,-3.53125v-28.25c0,-1.94925 1.582,-3.53125 3.53125,-3.53125c1.94925,0 3.53125,1.582 3.53125,3.53125v28.25c0,1.94925 -1.582,3.53125 -3.53125,3.53125z" fill="#d9a4fc"></path><path d="M149.49194,110.64819c-1.94925,0 -3.53125,-1.582 -3.53125,-3.53125v-23.53931c0,-1.94925 1.582,-3.53125 3.53125,-3.53125c1.94925,0 3.53125,1.582 3.53125,3.53125v23.53931c0,1.94925 -1.582,3.53125 -3.53125,3.53125z" fill="#d9a4fc"></path><path d="M157.72681,75.33569c-1.94925,0 -3.53125,-1.582 -3.53125,-3.53125v-2.35887c0,-1.94925 1.582,-3.53125 3.53125,-3.53125c1.94925,0 3.53125,1.582 3.53125,3.53125v2.35181c0,1.95631 -1.582,3.53831 -3.53125,3.53831z" fill="#d9a4fc"></path><path d="M102.40625,80.03931c-1.94925,0 -3.53125,-1.582 -3.53125,-3.53125v-7.0625c0,-1.94925 1.582,-3.53125 3.53125,-3.53125c1.94925,0 3.53125,1.582 3.53125,3.53125v7.0625c0,1.94925 -1.582,3.53125 -3.53125,3.53125z" fill="#d9a4fc"></path><path d="M113,70.625c-1.94925,0 -3.53125,-1.582 -3.53125,-3.53125v-7.0625c0,-1.94925 1.582,-3.53125 3.53125,-3.53125c1.94925,0 3.53125,1.582 3.53125,3.53125v7.0625c0,1.94925 -1.582,3.53125 -3.53125,3.53125z" fill="#d9a4fc"></path><path d="M123.59375,117.71069c-1.94925,0 -3.53125,-1.582 -3.53125,-3.53125v-16.47681c0,-1.94925 1.582,-3.53125 3.53125,-3.53125c1.94925,0 3.53125,1.582 3.53125,3.53125v16.47681c0,1.94925 -1.582,3.53125 -3.53125,3.53125z" fill="#d9a4fc"></path><path d="M123.59375,84.75c-1.94925,0 -3.53125,-1.582 -3.53125,-3.53125v-11.77319c0,-1.94925 1.582,-3.53125 3.53125,-3.53125c1.94925,0 3.53125,1.582 3.53125,3.53125v11.77319c0,1.94925 -1.582,3.53125 -3.53125,3.53125z" fill="#d9a4fc"></path><path d="M113,104.75806c-1.94925,0 -3.53125,-1.582 -3.53125,-3.53125v-17.65625c0,-1.94925 1.582,-3.53125 3.53125,-3.53125c1.94925,0 3.53125,1.582 3.53125,3.53125v17.65625c0,1.94925 -1.582,3.53125 -3.53125,3.53125z" fill="#d9a4fc"></path><path d="M113,127.125c-7.78994,0 -14.125,-6.33506 -14.125,-14.125c0,-7.78994 6.33506,-14.125 14.125,-14.125c7.78994,0 14.125,6.33506 14.125,14.125c0,7.78994 -6.33506,14.125 -14.125,14.125z" fill="#d9a4fc"></path><path d="M157.72681,117.71069c-6.49044,0 -11.77319,-5.28275 -11.77319,-11.77319c0,-6.49044 5.28275,-11.77319 11.77319,-11.77319c6.49044,0 11.77319,5.28275 11.77319,11.77319c0,6.49044 -5.28275,11.77319 -11.77319,11.77319z" fill="#d9a4fc"></path><path d="M76.50806,101.22681c-1.94925,0 -3.53125,-1.582 -3.53125,-3.53125v-23.53931c0,-1.94925 1.582,-3.53125 3.53125,-3.53125c1.94925,0 3.53125,1.582 3.53125,3.53125v23.53931c0,1.94925 -1.582,3.53125 -3.53125,3.53125z" fill="#d9a4fc"></path><path d="M68.27319,108.28931c-6.49044,0 -11.77319,-5.27569 -11.77319,-11.76613c0,-6.49044 5.28275,-11.77319 11.77319,-11.77319c6.49044,0 11.77319,5.28275 11.77319,11.77319c-0.00706,6.49044 -5.28275,11.76613 -11.77319,11.76613z" fill="#d9a4fc"></path></g></g></svg>