<svg version="1.1" xmlns="http://www.w3.org/2000/svg" xmlns:xlink="http://www.w3.org/1999/xlink" viewBox="0 0 226 226"><g fill="none" fill-rule="nonzero" stroke="none" stroke-width="1" stroke-linecap="butt" stroke-linejoin="miter" stroke-miterlimit="10" stroke-dasharray="" stroke-dashoffset="0" font-family="none" font-weight="none" font-size="none" text-anchor="none" style="mix-blend-mode: normal"><path d="M0,226v-226h226v226z" fill="none"></path><g><path d="M183.625,226h-141.25c-23.40512,0 -42.375,-18.96988 -42.375,-42.375v-141.25c0,-23.40512 18.96987,-42.375 42.375,-42.375h141.25c23.40513,0 42.375,18.96987 42.375,42.375v141.25c0,23.40513 -18.96988,42.375 -42.375,42.375z" fill="#f5e6fe"></path><path d="M156.55444,56.5h-87.10887c-7.14019,0 -12.94556,5.80537 -12.94556,12.94556v87.10181c0,7.14725 5.80537,12.95262 12.94556,12.95262h87.10181c7.14725,0 12.95263,-5.80537 12.95263,-12.94556v-87.10887c0,-7.14019 -5.80538,-12.94556 -12.94556,-12.94556zM137.71875,117.71069h-49.4375c-2.599,0 -4.71069,-2.11169 -4.71069,-4.71069c0,-2.599 2.10462,-4.71069 4.71069,-4.71069h49.4375c2.599,0 4.71069,2.11169 4.71069,4.71069c0,2.599 -2.10462,4.71069 -4.71069,4.71069z" fill="#be63f9"></path></g></g></svg>