<svg version="1.1" xmlns="http://www.w3.org/2000/svg" xmlns:xlink="http://www.w3.org/1999/xlink" viewBox="0 0 226 226"><g fill="none" fill-rule="nonzero" stroke="none" stroke-width="1" stroke-linecap="butt" stroke-linejoin="miter" stroke-miterlimit="10" stroke-dasharray="" stroke-dashoffset="0" font-family="none" font-weight="none" font-size="none" text-anchor="none" style="mix-blend-mode: normal"><path d="M0,226v-226h226v226z" fill="none"></path><g><path d="M183.625,226h-141.25c-23.40512,0 -42.375,-18.96988 -42.375,-42.375v-141.25c0,-23.40512 18.96987,-42.375 42.375,-42.375h141.25c23.40513,0 42.375,18.96987 42.375,42.375v141.25c0,23.40513 -18.96988,42.375 -42.375,42.375z" fill="#fff9dd"></path><path d="M127.73944,135.93194l-14.7465,-10.03581l-14.7465,10.03581c-2.70494,1.82919 -6.20087,-0.66388 -5.40987,-3.7855l4.59063,-18.12237l-13.80013,-11.78731c-2.40831,-2.05519 -1.08056,-6.03137 2.09756,-6.215l17.58562,-0.99581l6.37037,-17.37375c1.13,-3.07219 5.50169,-3.07219 6.63169,0l6.37037,17.37375l17.58562,0.99581c3.17812,0.18363 4.50588,4.15275 2.09756,6.215l-13.80013,11.78731l4.59062,18.12237c0.791,3.13575 -2.73319,5.60056 -5.41694,3.7855z" fill="#ffe777"></path><path d="M161.35694,104.864c-1.94925,0 -3.53125,1.582 -3.53125,3.53125c0,21.11687 -14.69706,38.82962 -34.38731,43.55444v-4.39994c0,-3.13575 -3.79962,-4.72481 -6.02431,-2.50012l-9.21656,9.2095c-1.37719,1.37719 -1.37719,3.616 0,4.99319l9.21656,9.2095c2.21056,2.21056 6.02431,0.66388 6.02431,-2.50012v-6.73763c23.62406,-4.84487 41.44981,-25.79931 41.44981,-50.83587c0,-1.94219 -1.582,-3.52419 -3.53125,-3.52419z" fill="#ffd200"></path><path d="M98.04163,150.61488c-17.87519,-6.26444 -29.87437,-23.22856 -29.87437,-42.21963c0,-5.37456 0.96756,-10.60081 2.78969,-15.50925l4.23044,2.44362c2.70494,1.56788 5.989,-0.92519 5.17681,-3.96912l-3.57363,-13.34813c-0.5085,-1.87862 -2.40125,-2.98744 -4.32931,-2.50012l-13.34812,3.57363c-3.03688,0.81219 -3.56656,4.90844 -0.8475,6.46925l6.49044,3.75019c-2.39419,6.01019 -3.65131,12.45119 -3.65131,19.08994c0,21.98556 13.90606,41.62638 34.60625,48.88662c1.8645,0.64269 3.86319,-0.339 4.49881,-2.16819c0.64269,-1.84331 -0.33194,-3.85613 -2.16819,-4.49881z" fill="#ffd200"></path><path d="M165.04356,79.65088l-7.59219,2.034c-9.23775,-15.26913 -26.08181,-25.18488 -44.45844,-25.18488c-11.82263,0 -22.91075,3.88438 -32.05669,11.23644c-1.51844,1.22181 -1.75856,3.4465 -0.54381,4.96494c1.22888,1.5255 3.4465,1.75856 4.96494,0.53675c7.88175,-6.328 17.43731,-9.67562 27.63556,-9.67562c15.17025,0 29.11869,7.83231 37.29,20.04338l-4.11744,1.10175c-3.02981,0.81219 -3.56656,4.90138 -0.8475,6.46925l11.96387,6.90713c0.81219,0.46613 1.77269,0.59325 2.68375,0.35313c0.904,-0.24719 1.67381,-0.83338 2.13994,-1.64556l6.90713,-11.97094c1.56787,-2.70494 -0.904,-5.98194 -3.96912,-5.16975z" fill="#ffd200"></path></g></g></svg>