<svg version="1.1" xmlns="http://www.w3.org/2000/svg" xmlns:xlink="http://www.w3.org/1999/xlink" viewBox="0 0 226 226"><g fill="none" fill-rule="nonzero" stroke="none" stroke-width="1" stroke-linecap="butt" stroke-linejoin="miter" stroke-miterlimit="10" stroke-dasharray="" stroke-dashoffset="0" font-family="none" font-weight="none" font-size="none" text-anchor="none" style="mix-blend-mode: normal"><path d="M0,226v-226h226v226z" fill="none"></path><g><path d="M183.625,226h-141.25c-23.40512,0 -42.375,-18.96988 -42.375,-42.375v-141.25c0,-23.40512 18.96987,-42.375 42.375,-42.375h141.25c23.40513,0 42.375,18.96987 42.375,42.375v141.25c0,23.40513 -18.96988,42.375 -42.375,42.375z" fill="#f5e6fe"></path><path d="M101.85538,168.88556l-14.7465,-10.03581l-14.7465,10.03581c-1.21475,0.82631 -2.80381,0.81219 -4.0115,-0.02825c-1.20062,-0.84044 -1.75856,-2.33769 -1.39838,-3.75725l4.59063,-18.12237l-13.80013,-11.78731c-1.09469,-0.93225 -1.51138,-2.44362 -1.05231,-3.81375c0.45906,-1.36306 1.70912,-2.3165 3.14987,-2.40125l17.58563,-0.99581l6.37037,-17.37375c0.5085,-1.39131 1.83625,-2.3165 3.31231,-2.3165c1.48313,0 2.80381,0.92519 3.31231,2.3165l6.37037,17.37375l17.58563,0.99581c1.44075,0.08475 2.68375,1.03113 3.14988,2.40125c0.45906,1.37013 0.04238,2.8815 -1.05231,3.81375l-13.80013,11.78731l4.59063,18.12237c0.36019,1.41956 -0.19775,2.91681 -1.39838,3.75725c-1.19356,0.83337 -2.78262,0.86162 -4.0115,0.02825z" fill="#d9a4fc"></path><path d="M160.74956,57.291l-28.39125,16.80875l-4.37875,-9.65444c-0.93931,-2.06931 -3.01569,-3.43944 -5.31806,-3.43944c-2.02694,0 -3.90556,1.08056 -4.94375,2.825l-22.8825,37.62194c1.9775,1.4125 3.53125,3.48181 4.42819,5.88306l4.2375,11.5825l11.44125,0.65681c5.13444,0.2825 9.605,3.58069 11.39181,8.42556l35.64444,-19.82444c1.83625,-0.98875 2.96625,-2.96625 2.96625,-5.03556c0,-2.30944 -1.32069,-4.37875 -3.43944,-5.31806l-9.65444,-4.32931l16.85819,-28.25c3.00862,-5.19094 -2.78262,-10.94688 -7.95944,-7.95238z" fill="#be63f9"></path><path d="M87.35606,93.66288c-2.32356,-1.16531 -3.26994,-3.99031 -2.10462,-6.32094l9.41431,-18.83569c1.15825,-2.32356 3.98325,-3.277 6.32094,-2.10462c2.32356,1.16531 3.26994,3.99031 2.10462,6.32094l-9.41431,18.83569c-1.17237,2.34475 -4.0115,3.25581 -6.32094,2.10462z" fill="#be63f9"></path><path d="M127.62644,138.64394c-1.16531,-2.32356 -0.21894,-5.15562 2.10462,-6.32094l18.83569,-9.41431c2.33062,-1.16531 5.15562,-0.21894 6.32094,2.10462c1.16531,2.32356 0.21894,5.15563 -2.10462,6.32094l-18.83569,9.41431c-2.30944,1.15119 -5.14856,0.24013 -6.32094,-2.10462z" fill="#be63f9"></path></g></g></svg>