<svg version="1.1" xmlns="http://www.w3.org/2000/svg" xmlns:xlink="http://www.w3.org/1999/xlink" viewBox="0 0 226 226"><g fill="none" fill-rule="nonzero" stroke="none" stroke-width="1" stroke-linecap="butt" stroke-linejoin="miter" stroke-miterlimit="10" stroke-dasharray="" stroke-dashoffset="0" font-family="none" font-weight="none" font-size="none" text-anchor="none" style="mix-blend-mode: normal"><path d="M0,226v-226h226v226z" fill="none"></path><g><path d="M183.625,226h-141.25c-23.40512,0 -42.375,-18.96988 -42.375,-42.375v-141.25c0,-23.40512 18.96987,-42.375 42.375,-42.375h141.25c23.40513,0 42.375,18.96987 42.375,42.375v141.25c0,23.40513 -18.96988,42.375 -42.375,42.375z" fill="#f5e6fe"></path><path d="M125.35938,94.129c0,-1.94925 -1.582,-3.53125 -3.53125,-3.53125c-14.27331,0 -25.89819,-11.61781 -25.89819,-25.89819c0,-1.94925 -1.582,-3.53125 -3.53125,-3.53125c-1.94925,0 -3.53125,1.582 -3.53125,3.53125c0,14.27331 -11.61781,25.89819 -25.89819,25.89819c-1.94925,0 -3.53125,1.582 -3.53125,3.53125c0,1.94925 1.582,3.53125 3.53125,3.53125c14.27331,0 25.89819,11.61781 25.89819,25.89819c0,1.94925 1.582,3.53125 3.53125,3.53125c1.94925,0 3.53125,-1.582 3.53125,-3.53125c0,-14.27331 11.61781,-25.89819 25.89819,-25.89819c1.94925,0 3.53125,-1.582 3.53125,-3.53125z" fill="#d9a4fc"></path><path d="M158.32006,132.97275c-11.68138,0 -21.1875,-9.50612 -21.1875,-21.1875c0,-1.94925 -1.582,-3.53125 -3.53125,-3.53125c-1.94925,0 -3.53125,1.582 -3.53125,3.53125c0,11.68138 -9.50612,21.1875 -21.1875,21.1875c-1.94925,0 -3.53125,1.582 -3.53125,3.53125c0,1.94925 1.582,3.53125 3.53125,3.53125c11.68138,0 21.1875,9.50612 21.1875,21.1875c0,1.94925 1.582,3.53125 3.53125,3.53125c1.94925,0 3.53125,-1.582 3.53125,-3.53125c0,-11.68138 9.50612,-21.1875 21.1875,-21.1875c1.94925,0 3.53125,-1.582 3.53125,-3.53125c0,-1.94925 -1.582,-3.53125 -3.53125,-3.53125z" fill="#d9a4fc"></path><g fill="#be63f9"><path d="M166.55494,76.47275c-9.08238,0 -16.47681,-7.39444 -16.47681,-16.47681c0,-1.94925 -1.582,-3.53125 -3.53125,-3.53125c-1.94925,0 -3.53125,1.582 -3.53125,3.53125c0,9.08237 -7.39444,16.47681 -16.47681,16.47681c-1.94925,0 -3.53125,1.582 -3.53125,3.53125c0,1.94925 1.582,3.53125 3.53125,3.53125c9.08238,0 16.47681,7.39444 16.47681,16.47681c0,1.94925 1.582,3.53125 3.53125,3.53125c1.94925,0 3.53125,-1.582 3.53125,-3.53125c0,-9.08237 7.39444,-16.47681 16.47681,-16.47681c1.94925,0 3.53125,-1.582 3.53125,-3.53125c0,-1.94925 -1.582,-3.53125 -3.53125,-3.53125z"></path><path d="M98.28881,147.09775c-6.49044,0 -11.77319,-5.27569 -11.77319,-11.77319c0,-1.94925 -1.582,-3.53125 -3.53125,-3.53125c-1.94925,0 -3.53125,1.582 -3.53125,3.53125c0,6.49044 -5.27569,11.77319 -11.77319,11.77319c-1.94925,0 -3.53125,1.582 -3.53125,3.53125c0,1.94925 1.582,3.53125 3.53125,3.53125c6.49044,0 11.77319,5.27569 11.77319,11.77319c0,1.94925 1.582,3.53125 3.53125,3.53125c1.94925,0 3.53125,-1.582 3.53125,-3.53125c0,-6.49044 5.27569,-11.77319 11.77319,-11.77319c1.94925,0 3.53125,-1.582 3.53125,-3.53125c0,-1.94925 -1.582,-3.53125 -3.53125,-3.53125z"></path></g></g></g></svg>