<svg version="1.1" xmlns="http://www.w3.org/2000/svg" xmlns:xlink="http://www.w3.org/1999/xlink" viewBox="0 0 226 226"><g fill="none" fill-rule="nonzero" stroke="none" stroke-width="1" stroke-linecap="butt" stroke-linejoin="miter" stroke-miterlimit="10" stroke-dasharray="" stroke-dashoffset="0" font-family="none" font-weight="none" font-size="none" text-anchor="none" style="mix-blend-mode: normal"><path d="M0,226v-226h226v226z" fill="none"></path><g><path d="M183.625,226h-141.25c-23.40512,0 -42.375,-18.96988 -42.375,-42.375v-141.25c0,-23.40512 18.96987,-42.375 42.375,-42.375h141.25c23.40513,0 42.375,18.96987 42.375,42.375v141.25c0,23.40513 -18.96988,42.375 -42.375,42.375z" fill="#f5e6fe"></path><g fill="#be63f9"><path d="M150.66431,75.33569h-75.32862c-2.599,0 -4.71069,2.11169 -4.71069,4.71069v9.41431c0,2.599 2.11169,4.71069 4.71069,4.71069h75.33569c2.599,0 4.71069,-2.11169 4.71069,-4.71069v-9.41431c-0.00706,-2.599 -2.11875,-4.71069 -4.71775,-4.71069z"></path><path d="M150.66431,103.58569h-75.32862c-2.599,0 -4.71069,2.11169 -4.71069,4.71069v9.41431c0,2.599 2.11169,4.71069 4.71069,4.71069h75.33569c2.599,0 4.71069,-2.11169 4.71069,-4.71069v-9.41431c-0.00706,-2.599 -2.11875,-4.71069 -4.71775,-4.71069z"></path><path d="M150.66431,131.83569h-75.32862c-2.599,0 -4.71069,2.11169 -4.71069,4.71069v9.41431c0,2.599 2.11169,4.71069 4.71069,4.71069h75.33569c2.599,0 4.71069,-2.11169 4.71069,-4.71069v-9.41431c-0.00706,-2.599 -2.11875,-4.71069 -4.71775,-4.71069z"></path></g></g></g></svg>